<svg width="64" height="64" viewBox="0 0 64 64" fill="none" xmlns="http://www.w3.org/2000/svg">
  <rect width="64" height="64" rx="12" fill="#090909" />
  <path d="M14 16H27C33.0751 16 38 20.9249 38 27C38 33.0751 33.0751 38 27 38H20V48H14V16ZM20 22V32H27C29.7614 32 32 29.7614 32 27C32 24.2386 29.7614 22 27 22H20Z" fill="#FF5500"/>
  <path d="M47.5 16C52.1944 16 56 19.8056 56 24.5C56 27.0298 54.8945 29.3014 53.1418 30.8571C55.5005 32.5059 57 35.2414 57 38.3333C57 43.6711 52.6711 48 47.3333 48C41.9956 48 37.6667 43.6711 37.6667 38.3333V37.5H43.6667V38.3333C43.6667 40.3574 45.3093 42 47.3333 42C49.3574 42 51 40.3574 51 38.3333C51 36.3093 49.3574 34.6667 47.3333 34.6667H45.3333V29H47.5C49.1569 29 50.5 27.6569 50.5 26C50.5 24.3431 49.1569 23 47.5 23C45.8431 23 44.5 24.3431 44.5 26V26.6667H38.5V26C38.5 20.4772 42.9772 16 48.5 16H47.5Z" fill="#E64D00"/>
</svg>
